:SAMPLES-PER-SECOND 30
:FULLY-SPECIFIED
:DEGREES
632
root  -27.1349 30.1685 8.90943 -155.853 1.13224 77.9311
Spine  4.22601 4.68506 -0.15053
Spine1  4.33769 -13.0498 -9.58432
Neck  3.97569e-016 0 -2.38542e-015
Head  42.3427 8.01227 2.48881
R_Clavicle  0.370982 -10.7117 1.67131
R_UpperArm  52.0983 18.4267 51.058
R_Forearm  8.23655 -39.6825 30.5049
R_Hand  -0.574471 4.92048 -14.2316
L_Clavicle  -0.431757 12.9627 2.50916
L_UpperArm  -39.6077 -8.98337 44.3416
L_Forearm  -19.5346 27.9629 38.1955
L_Hand  -0.296057 5.56858 -2.87126
L_Thigh  -21.7356 -6.86395 20.9791
L_Calf  -14.4233 0.860376 -6.47554
L_Foot  4.90276 6.4058 12.5201
L_Toe0  1.12217 -0.0149405 -3.59724
R_Thigh  26.4041 3.06666 -9.48116
R_Calf  -2.2546 -0.548235 -1.67528
R_Foot  0.735823 0.730658 -5.25005
R_Toe0  1.97424 -0.816277 -3.83038
633
root  -26.993 30.1395 8.89259 -152.61 0.818457 77.3913
Spine  4.00231 4.00328 0.00585644
Spine1  4.18791 -14.55 -6.5696
Neck  3.97569e-016 0 -2.38542e-015
Head  39.0224 7.62621 -1.36251
R_Clavicle  0.332076 -16.4779 0.436639
R_UpperArm  40.657 13.552 50.0781
R_Forearm  16.5567 -37.4485 25.4972
R_Hand  -0.68072 2.90622 -14.0222
L_Clavicle  -0.457859 16.5689 2.1785
L_UpperArm  -33.4065 -7.68385 40.5069
L_Forearm  -25.1772 22.4781 28.497
L_Hand  -0.237184 7.5449 -1.86195
L_Thigh  -20.2964 -10.1938 15.2254
L_Calf  -11.9056 0.263936 -1.88814
L_Foot  6.44677 5.55627 19.2166
L_Toe0  1.67159 -0.00955563 -4.88691
R_Thigh  27.2749 -0.981389 -3.83933
R_Calf  0.264365 -5.09503 -16.0342
R_Foot  0.612348 -1.22468 -7.84002
R_Toe0  -2.09367 -0.233126 -18.5462
634
root  -26.7053 30.0793 8.93919 -146.256 0.147793 77.4007
Spine  2.84415 1.82414 0.346975
Spine1  2.9818 -12.5213 -4.30531
Neck  3.97569e-016 0 -2.38542e-015
Head  36.1399 7.99362 -4.60308
R_Clavicle  0.38398 -20.196 0.0764076
R_UpperArm  16.0407 8.13274 48.4631
R_Forearm  31.1193 -24.6848 18.7026
R_Hand  -0.927583 2.24957 -16.7025
L_Clavicle  -0.472387 18.7431 2.39688
L_UpperArm  -25.5504 -4.83911 37.2578
L_Forearm  -27.4328 12.4013 14.7018
L_Hand  -0.125744 9.19641 -0.743744
L_Thigh  -15.9316 -13.3842 12.0435
L_Calf  -8.8542 -0.281322 2.22328
L_Foot  8.02856 6.76704 22.9083
L_Toe0  0.408556 0.0382569 -6.25163
R_Thigh  27.1999 -4.12989 -1.56024
R_Calf  4.24704 -9.27237 -30.3692
R_Foot  0.836915 1.29528 -4.43667
R_Toe0  -1.78854 -0.272775 -17.3235
635
root  -26.2297 30.2511 9.00383 -138.268 -0.265996 77.4449
Spine  1.70809 -0.501744 0.0783243
Spine1  1.75786 -8.61439 -2.5373
Neck  3.97569e-016 0 -2.38542e-015
Head  32.7814 8.53749 -6.10211
R_Clavicle  0.415187 -21.6661 0.748082
R_UpperArm  9.76093 1.36135 45.6657
R_Forearm  25.5192 -11.1125 9.69007
R_Hand  -1.07857 2.56256 -18.6417
L_Clavicle  -0.480885 19.3063 2.27134
L_UpperArm  -15.6032 -1.72306 32.7488
L_Forearm  -24.9107 1.08934 1.24736
L_Hand  0.0372216 10.295 0.497926
L_Thigh  -11.7876 -15.4881 9.79669
L_Calf  -6.40729 -0.64408 4.91433
L_Foot  8.87076 9.15843 22.1613
L_Toe0  0.505156 0.034446 -6.1361
R_Thigh  25.476 -5.33076 -2.01806
R_Calf  5.33125 -12.2316 -42.1518
R_Foot  0.995401 3.46369 0.0276073
R_Toe0  -1.7888 -0.27248 -17.3235
636
root  -25.5211 30.8303 8.98554 -131.165 0.0289258 77.3612
Spine  1.53428 -1.84149 -1.52292
Spine1  1.3845 -5.15243 -1.4013
Neck  3.97569e-016 0 -2.38542e-015
Head  28.739 8.08421 -4.28432
R_Clavicle  0.419905 -21.945 1.11798
R_UpperArm  7.07903 -4.5342 41.4484
R_Forearm  15.7769 -0.554251 0.433615
R_Hand  -0.929149 2.79515 -16.9313
L_Clavicle  -0.496157 18.6639 1.42437
L_UpperArm  -4.04432 0.184154 25.9983
L_Forearm  -18.7596 -7.83225 -9.15321
L_Hand  0.161936 10.1678 1.40927
L_Thigh  -9.4079 -15.6496 6.48178
L_Calf  -2.18386 -1.16785 8.82859
L_Foot  8.75615 11.1544 19.1946
L_Toe0  0.445924 0.0371729 -6.1886
R_Thigh  21.4728 -4.44356 -3.09951
R_Calf  4.042 -13.7625 -49.3254
R_Foot  0.815218 3.53485 2.5641
R_Toe0  -1.78936 -0.271841 -17.3235
637
root  -24.6422 31.8315 8.88984 -125.086 1.05678 77.2034
Spine  1.74897 -2.55451 -4.00915
Spine1  1.33953 -2.442 -1.53635
Neck  3.97569e-016 0 -2.38542e-015
Head  24.6002 6.66282 0.563307
R_Clavicle  0.413967 -21.6237 0.583854
R_UpperArm  2.29879 -7.58313 35.6623
R_Forearm  5.57982 7.04577 -5.92091
R_Hand  -0.578389 2.93839 -12.901
L_Clavicle  -0.496701 17.8177 0.525842
L_UpperArm  6.08886 0.457114 18.4198
L_Forearm  -9.78976 -14.5762 -17.4881
L_Hand  0.294536 9.47333 2.46807
L_Thigh  -8.13265 -14.3186 2.67615
L_Calf  5.29813 -2.03925 15.7889
L_Foot  7.18847 12.0747 13.3496
L_Toe0  0.941803 0.021068 -5.74854
R_Thigh  16.6402 -2.96904 -3.06416
R_Calf  3.65736 -14.1546 -51.378
R_Foot  0.802216 3.54622 2.76692
R_Toe0  -1.79016 -0.270917 -17.3236
638
root  -23.7395 32.9518 8.77357 -118.598 2.59536 77.2874
Spine  1.37153 -2.65259 -6.54713
Spine1  0.709813 -0.177002 -2.42977
Neck  3.97569e-016 0 -2.38542e-015
Head  20.6569 5.01684 5.63339
R_Clavicle  0.37155 -19.9191 -0.235943
R_UpperArm  -1.5075 -8.16752 27.9438
R_Forearm  -4.90778 12.034 -10.2288
R_Hand  -0.282447 3.20912 -9.76243
L_Clavicle  -0.480163 16.8828 -0.252174
L_UpperArm  11.7704 -0.405704 11.2626
L_Forearm  -0.164958 -19.5586 -24.2329
L_Hand  0.449354 9.04469 3.74646
L_Thigh  -7.01255 -12.6903 0.231813
L_Calf  10.5468 -3.37088 23.208
L_Foot  3.99579 11.4966 3.84503
L_Toe0  3.91029 -0.183918 -3.13237
R_Thigh  13.3351 -2.42536 -1.72202
R_Calf  5.69645 -13.6783 -48.9614
R_Foot  1.05426 4.15718 2.01839
R_Toe0  -1.79115 -0.269769 -17.3236
639
root  -22.8955 33.8572 8.61315 -111.771 3.76105 78.1415
Spine  0.578747 -1.60332 -8.14106
Spine1  -0.308199 1.18138 -3.39395
Neck  3.97569e-016 0 -2.38542e-015
Head  16.8774 3.38332 8.80051
R_Clavicle  0.253538 -16.0007 -0.808234
R_UpperArm  -2.08673 -7.53769 18.4735
R_Forearm  -9.85072 14.2332 -12.193
R_Hand  -0.0693751 4.22591 -8.59864
L_Clavicle  -0.405506 14.8517 -1.47757
L_UpperArm  12.4885 -1.46737 4.27589
L_Forearm  4.58995 -21.88 -27.6396
L_Hand  0.507364 8.88369 4.23877
L_Thigh  -5.90972 -10.8745 -1.04233
L_Calf  6.29041 -5.78016 26.8629
L_Foot  0.982675 10.2207 -5.21201
L_Toe0  6.31729 -0.515815 -0.909301
R_Thigh  11.5603 -3.05084 0.173924
R_Calf  8.06545 -12.3745 -42.8677
R_Foot  1.067 4.02123 1.32776
R_Toe0  -1.79227 -0.268457 -17.3237
640
root  -22.103 34.409 8.35415 -105.701 3.8453 79.7257
Spine  -0.048476 0.257101 -8.09761
Spine1  -1.11023 1.78114 -4.99084
Neck  3.97569e-016 0 -2.38542e-015
Head  13.6692 1.65672 10.4091
R_Clavicle  0.0641431 -10.6928 -1.28741
R_UpperArm  0.28499 -5.46308 8.75783
R_Forearm  -7.78113 13.4411 -11.4799
R_Hand  0.218629 6.08623 -7.83243
L_Clavicle  -0.20573 11.3936 -2.77674
L_UpperArm  9.8521 -2.26909 -2.9069
L_Forearm  2.56637 -21.2671 -26.72
L_Hand  0.374129 8.19709 3.33928
L_Thigh  -11.1172 -8.17097 -2.67479
L_Calf  -0.373417 -5.96525 25.8046
L_Foot  0.0109264 10.2977 -8.73192
L_Toe0  3.78246 -0.225181 -2.8705
R_Thigh  9.94504 -4.07994 2.17797
R_Calf  7.69527 -10.2498 -34.1278
R_Foot  0.629852 2.30573 0.435443
R_Toe0  -1.79347 -0.26704 -17.3237
641
root  -21.3768 34.6077 8.0397 -100.496 2.96827 81.3634
Spine  -0.565643 1.60299 -6.66359
Spine1  -1.73775 2.80029 -7.47921
Neck  3.97569e-016 0 -2.38542e-015
Head  11.5995 -0.080581 11.327
R_Clavicle  -0.141107 -5.77924 -1.67064
R_UpperArm  3.18495 -0.919865 0.141102
R_Forearm  -4.43337 9.70752 -8.19822
R_Hand  0.449509 7.53481 -7.33731
L_Clavicle  0.00254991 7.96117 -3.11054
L_UpperArm  6.13404 -3.71183 -10.0999
L_Forearm  -2.11221 -18.0478 -22.1153
L_Hand  0.159152 7.04845 1.64468
L_Thigh  -17.2759 -5.83772 -5.69831
L_Calf  0.29881 -2.88239 22.5069
L_Foot  0.226347 9.54268 -7.486
L_Toe0  0.06366 0.0730653 -6.55721
R_Thigh  8.26581 -5.52372 4.00895
R_Calf  4.63676 -7.28228 -23.3745
R_Foot  0.205098 0.556799 -0.413826
R_Toe0  -1.7947 -0.265577 -17.3237
